<svg width="1725" height="471" viewBox="0 0 1725 471" fill="none" xmlns="http://www.w3.org/2000/svg">
<path d="M665.922 264.664C665.137 265.131 665.603 265.59 666.129 265.976L666.344 264.708C666.159 264.649 666.003 264.62 665.922 264.664Z" fill="#831F69"/>
<path d="M666.907 266.628C666.885 266.465 666.493 266.235 666.129 265.976L662.596 286.925C666.589 281.204 667.767 273.171 666.907 266.628Z" fill="#831F69"/>
<path d="M781.5 275.809C793.59 280.596 803.31 284.316 806.273 298.159C808.977 310.809 809.785 324.896 811.577 337.791C812.37 343.519 813.474 349.21 814.4 354.931L826.883 357.036C825.713 346.187 824.705 335.508 822.972 325.689C819.408 305.533 811.074 264.99 801.191 248.101C781.344 214.176 758.963 179.614 725.626 157.382C724.085 156.352 717.892 153.447 717.573 153.121C715.476 151.039 720.566 142.472 721.455 140.042C724.129 132.735 724.7 122.434 723.833 114.683C723.263 109.54 720.951 109.251 716.632 107.243C714.913 106.442 712.387 106.228 709.372 106.413C686.258 107.85 670.13 130.008 675.234 152.602C673.923 158.753 675.738 165.156 680.079 169.706C683.695 173.493 687.421 177.642 688.555 177.45C690.059 177.205 692.251 176.19 693.437 175.234C696.104 173.085 698.986 170.417 701.919 167.972C704.201 166.067 709.676 159.242 712.432 159.842C715.284 160.465 722.796 165.282 725.522 167.157C743.399 179.421 757.578 196.539 769.113 214.665C761.008 211.182 753.518 206.314 745.095 203.49C724.974 196.754 702.06 199.363 681.613 203.246C680.946 208.018 676.486 211.686 675.642 214.917C696.415 210.048 718.758 206.158 739.702 212.464C761.245 218.948 776.625 228.871 788.123 248.257C789.982 251.392 796.739 263.515 796.479 266.339C796.324 267.991 795.324 270.696 793.62 271.185C790.827 271.993 774.232 265.234 769.765 264.167C728.048 254.193 695.652 274.579 661.573 292.979L659.944 302.65C701.475 282.086 730.856 255.756 781.5 275.809Z" fill="#831F69"/>
<path d="M961.218 81.6097C957.707 83.4623 945.713 82.3582 944.387 83.403C942.52 84.8777 936.504 91.4805 935.541 93.4517C933.904 96.7938 934.148 100.395 933.252 103.878C931.57 110.399 928.348 111.904 924.732 116.787C917.213 126.94 909.812 138.359 901.9 148.097C896.166 155.151 888.861 161.925 883.038 168.942C881.734 170.513 874.808 183.274 871.592 177.739C870.192 175.323 873.052 156.426 872.355 152.313C874.267 146.955 874.956 141.227 876.586 135.788C883.698 112.052 901.174 94.8226 903.774 69.664C904.308 68.6784 909.138 67.5372 910.538 67.1296C914.264 66.0329 914.953 66.0847 918.228 64.3359C933.452 56.1991 939.09 44.9871 934.2 27.854C932.163 20.7177 915.916 3.50315 908.76 1.40598C903.344 -0.17986 888.357 -0.298428 882.49 0.4278C877.482 1.05028 857.946 6.40807 854.449 9.17218C850.612 12.2105 843.841 25.0306 843.915 29.7807C843.944 31.5444 849.612 52.027 850.375 53.0645C850.945 53.85 857.917 59.356 859.376 60.5195C862.732 63.1798 870.155 69.0119 873.941 70.1457C880.016 71.9613 887.92 69.9827 894.217 70.2865C893.121 77.4747 891.224 84.5591 888.224 91.1544C883.186 102.226 875.474 112.326 871.844 124.316C871.111 126.732 868.77 139.841 867.681 140.545C866.495 141.309 866.621 140.049 866.377 139.471C859.435 123.183 859.228 118.425 846.945 104.36C845.656 102.885 845.167 100.536 842.559 99.6098C841.018 102.804 839.937 104.249 838.433 108.258C847.441 119.559 856.027 133.231 859.006 147.593C866.332 182.911 860.072 220.386 864.917 255.882C867.503 274.823 878.89 311.194 888.906 327.334C890.95 330.624 899.9 341.333 900.514 343.637C901.092 345.801 899.625 349.358 899.5 351.781C899.218 357.147 899.263 363.09 899.655 369.329L912.094 371.427C911.834 365.95 911.871 360.459 912.301 354.96C914.346 356.191 926.577 362.727 926.755 363.831C925.918 367.114 924.577 370.204 923.288 373.316L928.785 374.243C929.881 371.367 931.118 368.714 932.481 366.469C955.781 375.428 981.125 374.865 1003.94 366.002L1005.68 355.739C1004.48 356.213 1003.27 356.672 1002.05 357.095C984.992 363.045 971.546 365.639 953.477 361.926C951.306 361.482 938.719 358.34 937.86 357.621C937.038 356.924 937.504 356.606 937.801 355.902C938.682 353.827 942.512 348.209 944.009 346.149C947.735 341.014 952.795 336.375 956.47 331.121C967.641 334.144 980.354 344.652 992.274 342.548C992.845 342.444 997.045 341.273 997.245 341.103C997.705 340.703 997.638 339.369 998.105 338.724C999.846 336.301 1001.77 335.16 1002.36 331.766C1003.25 326.556 997.482 310.171 995.104 304.903C988.577 290.46 975.902 280.678 962.048 273.593C952.136 268.524 952.047 270.221 942.194 269.762C941.26 269.718 939.727 268.636 939.519 268.769C939.401 268.851 939.082 270.711 938.423 271.459C937.519 272.497 935.615 272.43 934.593 275.105C934.111 276.365 932.052 284.079 932.111 285.072C932.133 285.502 934.067 291.171 934.408 293.246C936.074 303.361 941.172 309.793 946.535 318.308C947.802 320.316 951.617 325.778 950.825 327.564C949.95 329.528 943.357 335.923 941.416 338.479C939.66 340.792 932.03 353.464 931.178 353.812C928.185 355.049 915.902 345.771 913.057 343.548C912.338 334.011 914.739 324.57 916.976 315.359C922.206 293.794 929.852 270.007 940.557 250.584C945.416 241.765 949.713 232.865 959.589 229.182C961.544 228.456 964.315 229.064 965.715 227.359C967.256 225.484 968.079 220.178 969.094 217.659C969.531 216.577 973.264 213.42 970.227 213.227C969.219 214.065 964.219 217.681 963.263 217.362C962.3 215.428 959.863 210.004 960.396 208.225L957.803 207.788C957.262 208.915 956.158 210.011 955.521 211.404C954.462 213.717 953.366 218.066 952.314 219.734C951.143 221.579 948.587 221.52 948.083 218.993C947.602 216.599 947.639 210.745 947.75 208.099C944.09 206.528 932.867 198.792 935.786 207.766C937.793 213.954 943.713 220.719 941.838 227.47C940.357 232.813 932.118 244.515 929.081 250.487C925.577 257.387 921.925 265.249 918.976 272.4C911.271 291.097 904.663 310.357 902.411 330.58C901.211 331.543 898.988 326.208 898.581 325.6C887.135 308.43 880.408 283.138 874.985 263.011C871.652 250.65 873.133 212.975 876.297 200.363C881.342 180.236 893.565 170.75 905.915 156.115C918.383 141.338 929.363 125.139 941.564 110.133C952.084 104.649 968.205 97.0087 972.368 84.9741C973.079 82.9214 972.494 83.5216 970.812 83.1956L961.248 81.6097H961.218Z" fill="#831F69"/>
<path d="M844.189 221.675C844.233 221.149 845.871 219.445 846.263 218.385C851.642 203.868 849.627 185.794 847.619 170.528C846.063 158.716 831.513 145.532 820.052 143.821C818.904 143.65 818.534 143.865 817.6 144.391C817.274 144.576 812.674 149.082 812.207 149.645C807.74 155.062 799.991 172.929 798.331 179.902C796.331 188.313 799.124 202.801 800.102 211.745C801.295 222.69 800.502 229.152 806.34 239.29C807.481 241.276 816.452 253.948 817.519 254.237C819.808 254.859 822.579 251.362 824.186 249.946C829.194 245.544 833.469 239.653 837.158 233.688C838.262 231.909 838.314 228.441 840.433 230.182C841.433 231.005 846.522 246.804 847.019 249.175C853.931 281.989 848.308 316.507 843.863 349.069C843.374 352.641 842.989 356.183 842.692 359.703L850.768 361.066C852.753 317.085 865.273 271.992 849.271 231.583C848.501 229.634 844.13 222.224 844.174 221.668L844.189 221.675Z" fill="#831F69"/>
<path d="M843.307 86.2194C841.878 80.832 841.1 84.3593 842.218 77.8455C843.278 71.6948 842.204 70.9093 841.804 65.5812C840.959 54.2283 841.707 42.5197 829.12 36.9174C826.728 35.8503 820.305 35.791 819.979 35.4575C819.482 34.9536 819.438 32.6934 818.949 31.5893C813.37 18.9914 798.517 16.4719 786.189 18.3541C777.84 19.6287 773.684 24.1639 771.817 32.271C771.476 32.4415 767.09 28.2694 765.572 27.9655C764.275 27.7062 756.045 28.6325 754.37 29.0104C751.644 29.6181 735.909 35.9763 733.82 37.4509C732.708 38.2365 729.071 41.8231 728.308 42.9421C722.129 51.9829 726.974 59.7713 731.76 67.8043C730.945 68.7751 729.619 69.1604 728.834 70.1609C728.16 71.0279 723.566 77.7047 723.389 78.1568C722.803 79.6537 721.603 85.1523 721.211 87.1309C720.151 92.4146 720.166 95.3343 722.44 100.277C726.678 109.496 737.479 120.915 748.518 120.293C750.111 120.204 750.985 118.774 752.526 119.107C752.178 121.419 751.348 122.946 752.466 125.147C752.889 125.977 757.867 131.29 758.793 132.068C764.505 136.892 777.758 140.071 785.152 141.294C786.219 141.472 787.5 140.916 788.493 141.19C789.515 141.479 789.945 142.754 790.871 142.947C791.316 143.043 791.531 141.702 792.583 141.324C793.753 140.901 795.472 141.279 796.842 140.864C802.762 139.101 806.992 133.031 808.555 127.222C814.111 129.86 818.964 130.964 824.972 129.037C832.654 126.569 835.892 115.031 838.448 108.243C839.952 104.234 841.033 102.789 842.574 99.5953C843.767 97.1276 844.085 89.0872 843.322 86.212L843.307 86.2194ZM798.68 78.8534C798.62 78.9867 798.05 79.1424 797.961 79.6982C797.642 81.6397 798.228 87.0049 796.39 88.4796C801.265 93.5632 804.021 97.4092 802.31 104.82C801.265 104.835 800.828 104.464 800.117 103.819C799.628 103.375 795.39 97.9724 794.924 97.2388C793.62 95.2009 792.923 92.3923 793.472 89.9913C791.005 90.888 785.893 91.1251 783.411 90.2952C782.352 94.0967 782.537 96.1124 780.003 99.5138C777.855 102.389 772.943 106.265 769.431 105.954C770.32 97.9354 773.669 92.6591 780.388 88.4499C778.092 86.8122 773.973 80.7875 774.136 78.053C767.076 79.4981 764.727 76.3486 761.053 71.8208C760.682 71.3614 760.927 70.7166 761.601 69.2716C765.587 70.146 769.432 71.6059 773.551 71.9986C774.877 72.1246 775.158 72.1617 775.988 71.0279C776.514 69.9163 778.418 67.4708 779.351 66.9225C779.692 63.0023 779.196 59.7862 778.566 56.1847C778.373 55.1027 779.611 54.3172 780.492 54.9693C783.411 57.1258 781.922 62.0241 784.337 65.0921C786.5 64.729 790.212 65.2625 792.123 66.4037C793.894 63.232 795.761 61.5202 798.709 60.5494C800.013 60.1196 801.31 61.3646 800.902 62.6763C799.976 65.6404 797.368 67.4041 796.124 70.4202C797.257 72.4136 796.968 75.9781 798.924 77.5639C802.443 73.6808 809.118 79.587 813.089 80.6319C809.259 83.3886 802.473 81.0987 798.709 78.8682L798.68 78.8534Z" fill="#831F69"/>
<path d="M952.299 219.734C953.358 218.067 954.447 213.717 955.507 211.405C956.144 210.011 957.255 208.915 957.788 207.788C959.981 203.186 960.255 197.591 966.456 195.902C967.686 198.355 961.137 205.691 960.381 208.225C959.855 210.004 962.285 215.428 963.248 217.363C964.204 217.681 969.205 214.065 970.212 213.227C970.634 212.872 971.398 211.182 972.427 210.315C979.406 204.446 985.859 213.353 991.704 216.503C993.682 217.57 996.127 218.126 998.26 219.267C1004.21 222.461 1014.94 232.332 1016.6 219.4C1016.97 216.466 1014.77 210.174 1015.18 208.611C1015.84 206.121 1017.73 207.455 1019.21 206.617C1021.97 205.061 1025.83 196.806 1026.28 193.671C1026.66 190.952 1024.44 181.296 1022.74 179.006C1020.19 175.56 1010.37 171.87 1010 171.21C1009.91 171.047 1011.14 169.165 1011.31 167.779C1011.9 163.162 1010.04 159.279 1006.9 156.018C999.734 148.578 978.776 136.744 968.434 138.07C966.101 138.367 965.026 140.056 963.508 140.041C958.3 139.982 948.795 132.801 942.861 135.847C940.631 136.988 934.934 143.799 933.03 146.074C931.526 147.874 931.385 148.482 930.178 150.127C926.918 154.573 922.94 156.878 925.103 163.377C925.821 165.541 930.852 169.32 929.274 170.921C928.362 171.847 919.821 171.862 917.361 173.04C912.39 175.427 912.257 180.555 916.065 184.082C919.673 187.417 932.022 190.596 936.934 190.929C939.727 191.115 947.809 188.81 948.847 189.884C950.069 191.159 947.854 205.061 947.728 208.099C947.617 210.745 947.58 216.599 948.061 218.993C948.565 221.52 951.128 221.579 952.291 219.734H952.299ZM999.72 172.825C1000.51 173.804 993.141 178.109 992.356 178.91C989.955 174.604 995.867 170.973 999.72 172.825ZM970.983 153.299C971.405 152.973 976.294 155.996 976.42 156.285C976.532 156.552 976.25 158.116 976.169 158.168C975.976 158.316 971.598 158.123 971.286 157.967C969.79 157.212 970.82 154.588 970.983 153.299ZM959.759 168.431C962.204 164.333 969.894 163.081 974.205 163.963C979.562 165.059 986.837 176.227 986.259 181.592C986.17 182.437 985.347 185.357 984.821 185.601C981.977 186.92 980.251 181.266 978.658 180.103C976.08 178.22 971.627 176.271 968.649 174.204C964.53 171.351 965.626 171.729 960.574 169.55C960.018 169.313 959.077 169.565 959.759 168.431Z" fill="#831F69"/>
<path d="M966.463 195.909C960.263 197.599 959.989 203.194 957.796 207.796L960.389 208.233C961.144 205.706 967.693 198.362 966.463 195.909Z" fill="#831F69"/>
<path d="M999.719 172.825C995.867 170.973 989.955 174.596 992.356 178.909C993.141 178.116 1000.51 173.804 999.719 172.825Z" fill="#831F69"/>
<path d="M971.286 157.968C971.598 158.123 975.969 158.316 976.169 158.168C976.243 158.108 976.532 156.545 976.42 156.285C976.302 156.004 971.412 152.973 970.983 153.299C970.82 154.588 969.79 157.212 971.286 157.968Z" fill="#831F69"/>
<path d="M1001.76 264.664C1000.98 265.131 1001.45 265.59 1001.97 265.976L1002.19 264.708C1002 264.649 1001.85 264.62 1001.76 264.664Z" fill="#831F69"/>
<path d="M1002.75 266.628C1002.73 266.465 1002.33 266.235 1001.97 265.976L998.438 286.925C1002.43 281.204 1003.61 273.171 1002.75 266.628Z" fill="#831F69"/>
<path d="M1117.34 275.809C1129.43 280.596 1139.15 284.316 1142.12 298.159C1144.82 310.809 1145.63 324.896 1147.42 337.791C1148.21 343.519 1149.32 349.21 1150.24 354.931L1162.73 357.036C1161.55 346.187 1160.55 335.508 1158.81 325.689C1155.25 305.533 1146.92 264.99 1137.03 248.101C1117.19 214.176 1094.81 179.614 1061.47 157.382C1059.93 156.352 1053.73 153.447 1053.42 153.121C1051.32 151.039 1056.41 142.472 1057.3 140.042C1059.97 132.735 1060.54 122.434 1059.68 114.683C1059.1 109.54 1056.79 109.251 1052.47 107.243C1050.76 106.442 1048.23 106.228 1045.21 106.413C1022.1 107.85 1005.97 130.008 1011.08 152.602C1009.77 158.753 1011.58 165.156 1015.92 169.706C1019.54 173.493 1023.26 177.642 1024.4 177.45C1025.9 177.205 1028.09 176.19 1029.28 175.234C1031.95 173.085 1034.83 170.417 1037.76 167.972C1040.04 166.067 1045.52 159.242 1048.27 159.842C1051.13 160.465 1058.64 165.282 1061.36 167.157C1079.24 179.421 1093.42 196.539 1104.95 214.665C1096.85 211.182 1089.36 206.314 1080.94 203.49C1060.82 196.754 1037.9 199.363 1017.46 203.246C1016.79 208.018 1012.33 211.686 1011.48 214.917C1032.26 210.048 1054.6 206.158 1075.54 212.464C1097.09 218.948 1112.47 228.871 1123.96 248.257C1125.82 251.392 1132.58 263.515 1132.32 266.339C1132.17 267.991 1131.17 270.696 1129.46 271.185C1126.67 271.993 1110.07 265.234 1105.61 264.167C1063.89 254.193 1031.49 274.579 997.415 292.979L995.786 302.65C1037.32 282.086 1066.7 255.756 1117.34 275.809Z" fill="#831F69"/>
<path d="M1297.07 81.6097C1293.56 83.4623 1281.56 82.3582 1280.24 83.403C1278.37 84.8777 1272.35 91.4805 1271.39 93.4517C1269.75 96.7938 1270 100.395 1269.1 103.878C1267.42 110.399 1264.2 111.904 1260.58 116.787C1253.06 126.94 1245.66 138.359 1237.75 148.097C1232.02 155.151 1224.71 161.925 1218.89 168.942C1217.58 170.513 1210.66 183.274 1207.44 177.739C1206.04 175.323 1208.9 156.426 1208.21 152.313C1210.12 146.955 1210.81 141.227 1212.44 135.788C1219.55 112.052 1237.02 94.8226 1239.62 69.664C1240.16 68.6784 1244.99 67.5372 1246.39 67.1296C1250.11 66.0329 1250.8 66.0847 1254.08 64.3359C1269.3 56.1991 1274.94 44.9871 1270.05 27.854C1268.01 20.7177 1251.77 3.50315 1244.61 1.40598C1239.19 -0.17986 1224.21 -0.298428 1218.34 0.4278C1213.33 1.05028 1193.8 6.40807 1190.3 9.17218C1186.46 12.2105 1179.69 25.0306 1179.76 29.7807C1179.79 31.5444 1185.46 52.027 1186.22 53.0645C1186.79 53.85 1193.77 59.356 1195.23 60.5195C1198.58 63.1798 1206 69.0119 1209.79 70.1457C1215.87 71.9613 1223.77 69.9827 1230.07 70.2865C1228.97 77.4747 1227.07 84.5591 1224.07 91.1544C1219.04 102.226 1211.32 112.326 1207.69 124.316C1206.96 126.732 1204.62 139.841 1203.53 140.545C1202.35 141.309 1202.47 140.049 1202.23 139.471C1195.28 123.183 1195.08 118.425 1182.79 104.36C1181.51 102.885 1181.02 100.536 1178.41 99.6098C1176.87 102.804 1175.79 104.249 1174.28 108.258C1183.29 119.559 1191.88 133.231 1194.86 147.593C1202.18 182.911 1195.92 220.386 1200.77 255.882C1203.35 274.823 1214.74 311.194 1224.76 327.334C1226.8 330.624 1235.75 341.333 1236.36 343.637C1236.94 345.801 1235.48 349.358 1235.35 351.781C1235.07 357.147 1235.11 363.09 1235.5 369.329L1247.94 371.427C1247.68 365.95 1247.72 360.459 1248.15 354.96C1250.2 356.191 1262.43 362.727 1262.6 363.831C1261.77 367.114 1260.43 370.204 1259.14 373.316L1264.63 374.243C1265.73 371.367 1266.97 368.714 1268.33 366.469C1291.63 375.428 1316.97 374.865 1339.79 366.002L1341.53 355.739C1340.33 356.213 1339.12 356.672 1337.9 357.095C1320.84 363.045 1307.4 365.639 1289.33 361.926C1287.16 361.482 1274.57 358.34 1273.71 357.621C1272.89 356.924 1273.35 356.606 1273.65 355.902C1274.53 353.827 1278.36 348.209 1279.86 346.149C1283.58 341.014 1288.64 336.375 1292.32 331.121C1303.49 334.144 1316.2 344.652 1328.12 342.548C1328.69 342.444 1332.89 341.273 1333.09 341.103C1333.55 340.703 1333.49 339.369 1333.95 338.724C1335.7 336.301 1337.62 335.16 1338.21 331.766C1339.1 326.556 1333.33 310.171 1330.95 304.903C1324.43 290.46 1311.75 280.678 1297.9 273.593C1287.99 268.524 1287.9 270.221 1278.04 269.762C1277.11 269.718 1275.58 268.636 1275.37 268.769C1275.25 268.851 1274.93 270.711 1274.27 271.459C1273.37 272.497 1271.46 272.43 1270.44 275.105C1269.96 276.365 1267.9 284.079 1267.96 285.072C1267.98 285.502 1269.92 291.171 1270.26 293.246C1271.92 303.361 1277.02 309.793 1282.38 318.308C1283.65 320.316 1287.47 325.778 1286.67 327.564C1285.8 329.528 1279.21 335.923 1277.27 338.479C1275.51 340.792 1267.88 353.464 1267.03 353.812C1264.03 355.049 1251.75 345.771 1248.91 343.548C1248.19 334.011 1250.59 324.57 1252.83 315.359C1258.06 293.794 1265.7 270.007 1276.41 250.584C1281.27 241.765 1285.56 232.865 1295.44 229.182C1297.39 228.456 1300.16 229.064 1301.56 227.359C1303.11 225.484 1303.93 220.178 1304.94 217.659C1305.38 216.577 1309.11 213.42 1306.08 213.227C1305.07 214.065 1300.07 217.681 1299.11 217.362C1298.15 215.428 1295.71 210.004 1296.25 208.225L1293.65 207.788C1293.11 208.915 1292.01 210.011 1291.37 211.404C1290.31 213.717 1289.22 218.066 1288.16 219.734C1286.99 221.579 1284.44 221.52 1283.93 218.993C1283.45 216.599 1283.49 210.745 1283.6 208.099C1279.94 206.528 1268.72 198.792 1271.64 207.766C1273.64 213.954 1279.56 220.719 1277.69 227.47C1276.21 232.813 1267.97 244.515 1264.93 250.487C1261.43 257.387 1257.77 265.249 1254.83 272.4C1247.12 291.097 1240.51 310.357 1238.26 330.58C1237.06 331.543 1234.84 326.208 1234.43 325.6C1222.98 308.43 1216.26 283.138 1210.83 263.011C1207.5 250.65 1208.98 212.975 1212.15 200.363C1217.19 180.236 1229.42 170.75 1241.76 156.115C1254.23 141.338 1265.21 125.139 1277.41 110.133C1287.93 104.649 1304.05 97.0087 1308.22 84.9741C1308.93 82.9214 1308.34 83.5216 1306.66 83.1956L1297.1 81.6097H1297.07Z" fill="#831F69"/>
<path d="M1180.04 221.675C1180.08 221.149 1181.72 219.445 1182.11 218.385C1187.49 203.868 1185.48 185.794 1183.47 170.528C1181.91 158.716 1167.36 145.532 1155.9 143.821C1154.75 143.65 1154.38 143.865 1153.45 144.391C1153.12 144.576 1148.52 149.082 1148.06 149.645C1143.59 155.062 1135.84 172.929 1134.18 179.902C1132.18 188.313 1134.97 202.801 1135.95 211.745C1137.14 222.69 1136.35 229.152 1142.19 239.29C1143.33 241.276 1152.3 253.948 1153.37 254.237C1155.66 254.859 1158.43 251.362 1160.04 249.946C1165.04 245.544 1169.32 239.653 1173.01 233.688C1174.11 231.909 1174.16 228.441 1176.28 230.182C1177.28 231.005 1182.37 246.804 1182.87 249.175C1189.78 281.989 1184.16 316.507 1179.71 349.069C1179.22 352.641 1178.84 356.183 1178.54 359.703L1186.62 361.066C1188.6 317.085 1201.12 271.992 1185.12 231.583C1184.35 229.634 1179.98 222.224 1180.02 221.668L1180.04 221.675Z" fill="#831F69"/>
<path d="M1179.16 86.2194C1177.73 80.832 1176.95 84.3593 1178.07 77.8455C1179.13 71.6948 1178.05 70.9093 1177.65 65.5812C1176.81 54.2283 1177.56 42.5197 1164.97 36.9174C1162.58 35.8503 1156.15 35.791 1155.83 35.4575C1155.33 34.9536 1155.29 32.6934 1154.8 31.5893C1149.22 18.9914 1134.37 16.4719 1122.04 18.3541C1113.69 19.6287 1109.53 24.1639 1107.67 32.271C1107.33 32.4415 1102.94 28.2694 1101.42 27.9655C1100.12 27.7062 1091.89 28.6325 1090.22 29.0104C1087.49 29.6181 1071.76 35.9763 1069.67 37.4509C1068.56 38.2365 1064.92 41.8231 1064.16 42.9421C1057.98 51.9829 1062.82 59.7713 1067.61 67.8043C1066.79 68.7751 1065.47 69.1604 1064.68 70.1609C1064.01 71.0279 1059.42 77.7047 1059.24 78.1568C1058.65 79.6537 1057.45 85.1523 1057.06 87.1309C1056 92.4146 1056.02 95.3343 1058.29 100.277C1062.53 109.496 1073.33 120.915 1084.37 120.293C1085.96 120.204 1086.83 118.774 1088.38 119.107C1088.03 121.419 1087.2 122.946 1088.32 125.147C1088.74 125.977 1093.72 131.29 1094.64 132.068C1100.35 136.892 1113.61 140.071 1121 141.294C1122.07 141.472 1123.35 140.916 1124.34 141.19C1125.37 141.479 1125.79 142.754 1126.72 142.947C1127.17 143.043 1127.38 141.702 1128.43 141.324C1129.6 140.901 1131.32 141.279 1132.69 140.864C1138.61 139.101 1142.84 133.031 1144.4 127.222C1149.96 129.86 1154.81 130.964 1160.82 129.037C1168.5 126.569 1171.74 115.031 1174.3 108.243C1175.8 104.234 1176.88 102.789 1178.42 99.5953C1179.62 97.1276 1179.93 89.0872 1179.17 86.212L1179.16 86.2194ZM1134.52 78.8534C1134.46 78.9867 1133.89 79.1424 1133.8 79.6982C1133.48 81.6397 1134.07 87.0049 1132.23 88.4796C1137.11 93.5632 1139.86 97.4092 1138.15 104.82C1137.11 104.835 1136.67 104.464 1135.96 103.819C1135.47 103.375 1131.23 97.9724 1130.77 97.2388C1129.46 95.2009 1128.77 92.3923 1129.31 89.9913C1126.85 90.888 1121.73 91.1251 1119.25 90.2952C1118.19 94.0967 1118.38 96.1124 1115.85 99.5138C1113.7 102.389 1108.79 106.265 1105.27 105.954C1106.16 97.9354 1109.51 92.6591 1116.23 88.4499C1113.93 86.8122 1109.82 80.7875 1109.98 78.053C1102.92 79.4981 1100.57 76.3486 1096.89 71.8208C1096.52 71.3614 1096.77 70.7166 1097.44 69.2716C1101.43 70.146 1105.27 71.6059 1109.39 71.9986C1110.72 72.1246 1111 72.1617 1111.83 71.0279C1112.36 69.9163 1114.26 67.4708 1115.19 66.9225C1115.53 63.0023 1115.04 59.7862 1114.41 56.1847C1114.22 55.1027 1115.45 54.3172 1116.33 54.9693C1119.25 57.1258 1117.76 62.0241 1120.18 65.0921C1122.34 64.729 1126.05 65.2625 1127.97 66.4037C1129.74 63.232 1131.6 61.5202 1134.55 60.5494C1135.86 60.1196 1137.15 61.3646 1136.74 62.6763C1135.82 65.6404 1133.21 67.4041 1131.97 70.4202C1133.1 72.4136 1132.81 75.9781 1134.77 77.5639C1138.29 73.6808 1144.96 79.587 1148.93 80.6319C1145.1 83.3886 1138.31 81.0987 1134.55 78.8682L1134.52 78.8534Z" fill="#831F69"/>
<path d="M1288.14 219.734C1289.2 218.067 1290.29 213.717 1291.35 211.405C1291.99 210.011 1293.1 208.915 1293.63 207.788C1295.82 203.186 1296.1 197.591 1302.3 195.902C1303.53 198.355 1296.98 205.691 1296.22 208.225C1295.7 210.004 1298.13 215.428 1299.09 217.363C1300.05 217.681 1305.05 214.065 1306.05 213.227C1306.48 212.872 1307.24 211.182 1308.27 210.315C1315.25 204.446 1321.7 213.353 1327.55 216.503C1329.52 217.57 1331.97 218.126 1334.1 219.267C1340.05 222.461 1350.78 232.332 1352.44 219.4C1352.82 216.466 1350.61 210.174 1351.02 208.611C1351.68 206.121 1353.57 207.455 1355.05 206.617C1357.81 205.061 1361.68 196.806 1362.12 193.671C1362.51 190.952 1360.28 181.296 1358.59 179.006C1356.03 175.56 1346.21 171.87 1345.84 171.21C1345.76 171.047 1346.98 169.165 1347.16 167.779C1347.74 163.162 1345.88 159.279 1342.74 156.018C1335.58 148.578 1314.62 136.744 1304.28 138.07C1301.94 138.367 1300.87 140.056 1299.35 140.041C1294.14 139.982 1284.64 132.801 1278.7 135.847C1276.47 136.988 1270.78 143.799 1268.87 146.074C1267.37 147.874 1267.23 148.482 1266.02 150.127C1262.76 154.573 1258.78 156.878 1260.95 163.377C1261.66 165.541 1266.69 169.32 1265.12 170.921C1264.2 171.847 1255.66 171.862 1253.2 173.04C1248.23 175.427 1248.1 180.555 1251.91 184.082C1255.51 187.417 1267.86 190.596 1272.78 190.929C1275.57 191.115 1283.65 188.81 1284.69 189.884C1285.91 191.159 1283.7 205.061 1283.57 208.099C1283.46 210.745 1283.42 216.599 1283.9 218.993C1284.41 221.52 1286.97 221.579 1288.13 219.734H1288.14ZM1335.56 172.825C1336.35 173.804 1328.98 178.109 1328.2 178.91C1325.8 174.604 1331.71 170.973 1335.56 172.825ZM1306.83 153.299C1307.25 152.973 1312.14 155.996 1312.27 156.285C1312.38 156.552 1312.1 158.116 1312.02 158.168C1311.83 158.316 1307.45 158.123 1307.14 157.967C1305.64 157.212 1306.67 154.588 1306.83 153.299ZM1295.61 168.431C1298.05 164.333 1305.74 163.081 1310.06 163.963C1315.41 165.059 1322.69 176.227 1322.11 181.592C1322.02 182.437 1321.2 185.357 1320.67 185.601C1317.83 186.92 1316.1 181.266 1314.51 180.103C1311.93 178.22 1307.48 176.271 1304.5 174.204C1300.38 171.351 1301.48 171.729 1296.42 169.55C1295.87 169.313 1294.93 169.565 1295.61 168.431Z" fill="#831F69"/>
<path d="M1302.31 195.909C1296.11 197.599 1295.83 203.194 1293.64 207.796L1296.23 208.233C1296.99 205.706 1303.54 198.362 1302.31 195.909Z" fill="#831F69"/>
<path d="M1335.56 172.825C1331.71 170.973 1325.8 174.596 1328.2 178.909C1328.98 178.116 1336.35 173.804 1335.56 172.825Z" fill="#831F69"/>
<path d="M1307.14 157.968C1307.45 158.123 1311.82 158.316 1312.02 158.168C1312.09 158.108 1312.38 156.545 1312.27 156.285C1312.15 156.004 1307.26 152.973 1306.83 153.299C1306.67 154.588 1305.64 157.212 1307.14 157.968Z" fill="#831F69"/>
<path d="M1341.6 264.664C1340.81 265.131 1341.28 265.59 1341.81 265.976L1342.02 264.708C1341.84 264.649 1341.68 264.62 1341.6 264.664Z" fill="#831F69"/>
<path d="M1342.59 266.628C1342.56 266.465 1342.17 266.235 1341.81 265.976L1338.27 286.925C1342.27 281.204 1343.44 273.171 1342.59 266.628Z" fill="#831F69"/>
<path d="M1457.18 275.809C1469.27 280.596 1478.99 284.316 1481.95 298.159C1484.65 310.809 1485.46 324.896 1487.25 337.791C1488.05 343.519 1489.15 349.21 1490.08 354.931L1502.56 357.036C1501.39 346.187 1500.38 335.508 1498.65 325.689C1495.09 305.533 1486.75 264.99 1476.87 248.101C1457.02 214.176 1434.64 179.614 1401.3 157.382C1399.76 156.352 1393.57 153.447 1393.25 153.121C1391.15 151.039 1396.24 142.472 1397.13 140.042C1399.81 132.735 1400.38 122.434 1399.51 114.683C1398.94 109.54 1396.63 109.251 1392.31 107.243C1390.59 106.442 1388.06 106.228 1385.05 106.413C1361.94 107.85 1345.81 130.008 1350.91 152.602C1349.6 158.753 1351.42 165.156 1355.76 169.706C1359.37 173.493 1363.1 177.642 1364.23 177.45C1365.74 177.205 1367.93 176.19 1369.11 175.234C1371.78 173.085 1374.66 170.417 1377.6 167.972C1379.88 166.067 1385.35 159.242 1388.11 159.842C1390.96 160.465 1398.47 165.282 1401.2 167.157C1419.08 179.421 1433.26 196.539 1444.79 214.665C1436.69 211.182 1429.2 206.314 1420.77 203.49C1400.65 196.754 1377.74 199.363 1357.29 203.246C1356.62 208.018 1352.16 211.686 1351.32 214.917C1372.09 210.048 1394.44 206.158 1415.38 212.464C1436.92 218.948 1452.3 228.871 1463.8 248.257C1465.66 251.392 1472.42 263.515 1472.16 266.339C1472 267.991 1471 270.696 1469.3 271.185C1466.5 271.993 1449.91 265.234 1445.44 264.167C1403.73 254.193 1371.33 274.579 1337.25 292.979L1335.62 302.65C1377.15 282.086 1406.53 255.756 1457.18 275.809Z" fill="#831F69"/>
<path d="M1636.9 81.6097C1633.39 83.4623 1621.4 82.3582 1620.07 83.403C1618.2 84.8777 1612.19 91.4805 1611.23 93.4517C1609.59 96.7938 1609.83 100.395 1608.94 103.878C1607.26 110.399 1604.03 111.904 1600.42 116.787C1592.9 126.94 1585.5 138.359 1577.59 148.097C1571.85 155.151 1564.55 161.925 1558.72 168.942C1557.42 170.513 1550.49 183.274 1547.28 177.739C1545.88 175.323 1548.74 156.426 1548.04 152.313C1549.95 146.955 1550.64 141.227 1552.27 135.788C1559.38 112.052 1576.86 94.8226 1579.46 69.664C1579.99 68.6784 1584.82 67.5372 1586.22 67.1296C1589.95 66.0329 1590.64 66.0847 1593.91 64.3359C1609.14 56.1991 1614.77 44.9871 1609.89 27.854C1607.85 20.7177 1591.6 3.50315 1584.44 1.40598C1579.03 -0.17986 1564.04 -0.298428 1558.18 0.4278C1553.17 1.05028 1533.63 6.40807 1530.13 9.17218C1526.3 12.2105 1519.53 25.0306 1519.6 29.7807C1519.63 31.5444 1525.3 52.027 1526.06 53.0645C1526.63 53.85 1533.6 59.356 1535.06 60.5195C1538.42 63.1798 1545.84 69.0119 1549.63 70.1457C1555.7 71.9613 1563.61 69.9827 1569.9 70.2865C1568.81 77.4747 1566.91 84.5591 1563.91 91.1544C1558.87 102.226 1551.16 112.326 1547.53 124.316C1546.8 126.732 1544.45 139.841 1543.37 140.545C1542.18 141.309 1542.31 140.049 1542.06 139.471C1535.12 123.183 1534.91 118.425 1522.63 104.36C1521.34 102.885 1520.85 100.536 1518.24 99.6098C1516.7 102.804 1515.62 104.249 1514.12 108.258C1523.13 119.559 1531.71 133.231 1534.69 147.593C1542.02 182.911 1535.76 220.386 1540.6 255.882C1543.19 274.823 1554.57 311.194 1564.59 327.334C1566.64 330.624 1575.58 341.333 1576.2 343.637C1576.78 345.801 1575.31 349.358 1575.18 351.781C1574.9 357.147 1574.95 363.09 1575.34 369.329L1587.78 371.427C1587.52 365.95 1587.56 360.459 1587.99 354.96C1590.03 356.191 1602.26 362.727 1602.44 363.831C1601.6 367.114 1600.26 370.204 1598.97 373.316L1604.47 374.243C1605.57 371.367 1606.8 368.714 1608.17 366.469C1631.47 375.428 1656.81 374.865 1679.63 366.002L1681.36 355.739C1680.16 356.213 1678.95 356.672 1677.73 357.095C1660.68 363.045 1647.23 365.639 1629.16 361.926C1626.99 361.482 1614.4 358.34 1613.54 357.621C1612.72 356.924 1613.19 356.606 1613.49 355.902C1614.37 353.827 1618.2 348.209 1619.69 346.149C1623.42 341.014 1628.48 336.375 1632.15 331.121C1643.33 334.144 1656.04 344.652 1667.96 342.548C1668.53 342.444 1672.73 341.273 1672.93 341.103C1673.39 340.703 1673.32 339.369 1673.79 338.724C1675.53 336.301 1677.46 335.16 1678.04 331.766C1678.93 326.556 1673.17 310.171 1670.79 304.903C1664.26 290.46 1651.59 280.678 1637.73 273.593C1627.82 268.524 1627.73 270.221 1617.88 269.762C1616.95 269.718 1615.41 268.636 1615.2 268.769C1615.09 268.851 1614.77 270.711 1614.11 271.459C1613.2 272.497 1611.3 272.43 1610.28 275.105C1609.8 276.365 1607.74 284.079 1607.8 285.072C1607.82 285.502 1609.75 291.171 1610.09 293.246C1611.76 303.361 1616.86 309.793 1622.22 318.308C1623.49 320.316 1627.3 325.778 1626.51 327.564C1625.64 329.528 1619.04 335.923 1617.1 338.479C1615.35 340.792 1607.71 353.464 1606.86 353.812C1603.87 355.049 1591.59 345.771 1588.74 343.548C1588.02 334.011 1590.42 324.57 1592.66 315.359C1597.89 293.794 1605.54 270.007 1616.24 250.584C1621.1 241.765 1625.4 232.865 1635.27 229.182C1637.23 228.456 1640 229.064 1641.4 227.359C1642.94 225.484 1643.76 220.178 1644.78 217.659C1645.22 216.577 1648.95 213.42 1645.91 213.227C1644.9 214.065 1639.9 217.681 1638.95 217.362C1637.99 215.428 1635.55 210.004 1636.08 208.225L1633.49 207.788C1632.95 208.915 1631.84 210.011 1631.21 211.404C1630.15 213.717 1629.05 218.066 1628 219.734C1626.83 221.579 1624.27 221.52 1623.77 218.993C1623.29 216.599 1623.32 210.745 1623.44 208.099C1619.78 206.528 1608.55 198.792 1611.47 207.766C1613.48 213.954 1619.4 220.719 1617.52 227.47C1616.04 232.813 1607.8 244.515 1604.77 250.487C1601.26 257.387 1597.61 265.249 1594.66 272.4C1586.96 291.097 1580.35 310.357 1578.1 330.58C1576.9 331.543 1574.67 326.208 1574.27 325.6C1562.82 308.43 1556.09 283.138 1550.67 263.011C1547.34 250.65 1548.82 212.975 1551.98 200.363C1557.03 180.236 1569.25 170.75 1581.6 156.115C1594.07 141.338 1605.05 125.139 1617.25 110.133C1627.77 104.649 1643.89 97.0087 1648.05 84.9741C1648.76 82.9214 1648.18 83.5216 1646.5 83.1956L1636.93 81.6097H1636.9Z" fill="#831F69"/>
<path d="M1519.87 221.675C1519.92 221.149 1521.56 219.445 1521.95 218.385C1527.33 203.868 1525.31 185.794 1523.3 170.528C1521.75 158.716 1507.2 145.532 1495.74 143.821C1494.59 143.65 1494.22 143.865 1493.29 144.391C1492.96 144.576 1488.36 149.082 1487.89 149.645C1483.42 155.062 1475.68 172.929 1474.02 179.902C1472.02 188.313 1474.81 202.801 1475.79 211.745C1476.98 222.69 1476.19 229.152 1482.02 239.29C1483.17 241.276 1492.14 253.948 1493.2 254.237C1495.49 254.859 1498.26 251.362 1499.87 249.946C1504.88 245.544 1509.15 239.653 1512.84 233.688C1513.95 231.909 1514 228.441 1516.12 230.182C1517.12 231.005 1522.21 246.804 1522.7 249.175C1529.62 281.989 1523.99 316.507 1519.55 349.069C1519.06 352.641 1518.67 356.183 1518.38 359.703L1526.45 361.066C1528.44 317.085 1540.96 271.992 1524.96 231.583C1524.19 229.634 1519.81 222.224 1519.86 221.668L1519.87 221.675Z" fill="#831F69"/>
<path d="M1518.99 86.2194C1517.56 80.832 1516.78 84.3593 1517.9 77.8455C1518.96 71.6948 1517.89 70.9093 1517.49 65.5812C1516.64 54.2283 1517.39 42.5197 1504.81 36.9174C1502.41 35.8503 1495.99 35.791 1495.66 35.4575C1495.17 34.9536 1495.12 32.6934 1494.63 31.5893C1489.06 18.9914 1474.2 16.4719 1461.87 18.3541C1453.53 19.6287 1449.37 24.1639 1447.5 32.271C1447.16 32.4415 1442.78 28.2694 1441.26 27.9655C1439.96 27.7062 1431.73 28.6325 1430.06 29.0104C1427.33 29.6181 1411.59 35.9763 1409.5 37.4509C1408.39 38.2365 1404.76 41.8231 1403.99 42.9421C1397.81 51.9829 1402.66 59.7713 1407.45 67.8043C1406.63 68.7751 1405.3 69.1604 1404.52 70.1609C1403.84 71.0279 1399.25 77.7047 1399.07 78.1568C1398.49 79.6537 1397.29 85.1523 1396.9 87.1309C1395.84 92.4146 1395.85 95.3343 1398.13 100.277C1402.36 109.496 1413.16 120.915 1424.2 120.293C1425.8 120.204 1426.67 118.774 1428.21 119.107C1427.86 121.419 1427.03 122.946 1428.15 125.147C1428.57 125.977 1433.55 131.29 1434.48 132.068C1440.19 136.892 1453.44 140.071 1460.84 141.294C1461.9 141.472 1463.19 140.916 1464.18 141.19C1465.2 141.479 1465.63 142.754 1466.56 142.947C1467 143.043 1467.22 141.702 1468.27 141.324C1469.44 140.901 1471.16 141.279 1472.53 140.864C1478.45 139.101 1482.68 133.031 1484.24 127.222C1489.8 129.86 1494.65 130.964 1500.66 129.037C1508.34 126.569 1511.58 115.031 1514.13 108.243C1515.64 104.234 1516.72 102.789 1518.26 99.5953C1519.45 97.1276 1519.77 89.0872 1519.01 86.212L1518.99 86.2194ZM1474.36 78.8534C1474.3 78.9867 1473.73 79.1424 1473.64 79.6982C1473.32 81.6397 1473.91 87.0049 1472.07 88.4796C1476.94 93.5632 1479.7 97.4092 1477.99 104.82C1476.94 104.835 1476.51 104.464 1475.79 103.819C1475.31 103.375 1471.07 97.9724 1470.6 97.2388C1469.3 95.2009 1468.6 92.3923 1469.15 89.9913C1466.68 90.888 1461.57 91.1251 1459.09 90.2952C1458.03 94.0967 1458.21 96.1124 1455.68 99.5138C1453.53 102.389 1448.62 106.265 1445.11 105.954C1446 97.9354 1449.35 92.6591 1456.07 88.4499C1453.77 86.8122 1449.65 80.7875 1449.81 78.053C1442.75 79.4981 1440.4 76.3486 1436.73 71.8208C1436.36 71.3614 1436.6 70.7166 1437.28 69.2716C1441.26 70.146 1445.11 71.6059 1449.23 71.9986C1450.55 72.1246 1450.84 72.1617 1451.67 71.0279C1452.19 69.9163 1454.1 67.4708 1455.03 66.9225C1455.37 63.0023 1454.87 59.7862 1454.24 56.1847C1454.05 55.1027 1455.29 54.3172 1456.17 54.9693C1459.09 57.1258 1457.6 62.0241 1460.01 65.0921C1462.18 64.729 1465.89 65.2625 1467.8 66.4037C1469.57 63.232 1471.44 61.5202 1474.39 60.5494C1475.69 60.1196 1476.99 61.3646 1476.58 62.6763C1475.65 65.6404 1473.05 67.4041 1471.8 70.4202C1472.93 72.4136 1472.65 75.9781 1474.6 77.5639C1478.12 73.6808 1484.8 79.587 1488.77 80.6319C1484.94 83.3886 1478.15 81.0987 1474.39 78.8682L1474.36 78.8534Z" fill="#831F69"/>
<path d="M1627.98 219.734C1629.04 218.067 1630.13 213.717 1631.18 211.405C1631.82 210.011 1632.93 208.915 1633.47 207.788C1635.66 203.186 1635.93 197.591 1642.13 195.902C1643.36 198.355 1636.81 205.691 1636.06 208.225C1635.53 210.004 1637.96 215.428 1638.93 217.363C1639.88 217.681 1644.88 214.065 1645.89 213.227C1646.31 212.872 1647.08 211.182 1648.11 210.315C1655.08 204.446 1661.54 213.353 1667.38 216.503C1669.36 217.57 1671.8 218.126 1673.94 219.267C1679.89 222.461 1690.61 232.332 1692.27 219.4C1692.65 216.466 1690.44 210.174 1690.86 208.611C1691.52 206.121 1693.41 207.455 1694.89 206.617C1697.64 205.061 1701.51 196.806 1701.96 193.671C1702.34 190.952 1700.12 181.296 1698.42 179.006C1695.87 175.56 1686.04 171.87 1685.68 171.21C1685.59 171.047 1686.81 169.165 1686.99 167.779C1687.58 163.162 1685.72 159.279 1682.58 156.018C1675.41 148.578 1654.45 136.744 1644.11 138.07C1641.78 138.367 1640.7 140.056 1639.19 140.041C1633.98 139.982 1624.47 132.801 1618.54 135.847C1616.31 136.988 1610.61 143.799 1608.71 146.074C1607.2 147.874 1607.06 148.482 1605.86 150.127C1602.6 154.573 1598.62 156.878 1600.78 163.377C1601.5 165.541 1606.53 169.32 1604.95 170.921C1604.04 171.847 1595.5 171.862 1593.04 173.04C1588.07 175.427 1587.93 180.555 1591.74 184.082C1595.35 187.417 1607.7 190.596 1612.61 190.929C1615.4 191.115 1623.49 188.81 1624.52 189.884C1625.75 191.159 1623.53 205.061 1623.41 208.099C1623.29 210.745 1623.26 216.599 1623.74 218.993C1624.24 221.52 1626.81 221.579 1627.97 219.734H1627.98ZM1675.4 172.825C1676.19 173.804 1668.82 178.109 1668.03 178.91C1665.63 174.604 1671.54 170.973 1675.4 172.825ZM1646.67 153.299C1647.09 152.973 1651.98 155.996 1652.11 156.285C1652.22 156.552 1651.94 158.116 1651.85 158.168C1651.66 158.316 1647.28 158.123 1646.97 157.967C1645.48 157.212 1646.5 154.588 1646.67 153.299ZM1635.44 168.431C1637.89 164.333 1645.58 163.081 1649.89 163.963C1655.25 165.059 1662.52 176.227 1661.94 181.592C1661.85 182.437 1661.03 185.357 1660.51 185.601C1657.66 186.92 1655.94 181.266 1654.34 180.103C1651.76 178.22 1647.31 176.271 1644.33 174.204C1640.22 171.351 1641.31 171.729 1636.26 169.55C1635.7 169.313 1634.76 169.565 1635.44 168.431Z" fill="#831F69"/>
<path d="M1642.14 195.909C1635.94 197.599 1635.67 203.194 1633.47 207.796L1636.07 208.233C1636.82 205.706 1643.37 198.362 1642.14 195.909Z" fill="#831F69"/>
<path d="M1675.4 172.825C1671.54 170.973 1665.63 174.596 1668.03 178.909C1668.82 178.116 1676.19 173.804 1675.4 172.825Z" fill="#831F69"/>
<path d="M1646.97 157.968C1647.28 158.123 1651.65 158.316 1651.85 158.168C1651.93 158.108 1652.22 156.545 1652.11 156.285C1651.99 156.004 1647.1 152.973 1646.67 153.299C1646.5 154.588 1645.47 157.212 1646.97 157.968Z" fill="#831F69"/>
<path d="M326.79 264.664C326.005 265.131 326.472 265.59 326.998 265.976L327.213 264.708C327.027 264.649 326.872 264.62 326.79 264.664Z" fill="#831F69"/>
<path d="M327.776 266.628C327.753 266.465 327.361 266.235 326.998 265.976L323.464 286.925C327.457 281.204 328.635 273.171 327.776 266.628Z" fill="#831F69"/>
<path d="M442.368 275.809C454.458 280.596 464.178 284.316 467.141 298.159C469.845 310.809 470.653 324.896 472.446 337.791C473.238 343.519 474.342 349.21 475.268 354.931L487.751 357.036C486.581 346.187 485.573 335.508 483.84 325.689C480.276 305.533 471.942 264.99 462.059 248.101C442.212 214.176 419.832 179.614 386.494 157.382C384.953 156.352 378.76 153.447 378.441 153.121C376.345 151.039 381.434 142.472 382.323 140.042C384.998 132.735 385.568 122.434 384.701 114.683C384.131 109.54 381.82 109.251 377.501 107.243C375.782 106.442 373.256 106.228 370.24 106.413C347.126 107.85 330.998 130.008 336.103 152.602C334.791 158.753 336.606 165.156 340.948 169.706C344.563 173.493 348.289 177.642 349.423 177.45C350.927 177.205 353.12 176.19 354.305 175.234C356.972 173.085 359.854 170.417 362.788 167.972C365.069 166.067 370.544 159.242 373.3 159.842C376.152 160.465 383.664 165.282 386.391 167.157C404.267 179.421 418.446 196.539 429.981 214.665C421.876 211.182 414.387 206.314 405.963 203.49C385.842 196.754 362.928 199.363 342.481 203.246C341.815 208.018 337.355 211.686 336.51 214.917C357.283 210.048 379.627 206.158 400.57 212.464C422.114 218.948 437.493 228.871 448.991 248.257C450.85 251.392 457.607 263.515 457.348 266.339C457.192 267.991 456.192 270.696 454.488 271.185C451.695 271.993 435.1 265.234 430.633 264.167C388.917 254.193 356.52 274.579 322.442 292.979L320.812 302.65C362.343 282.086 391.725 255.756 442.368 275.809Z" fill="#831F69"/>
<path d="M622.094 81.6097C618.583 83.4623 606.589 82.3582 605.262 83.403C603.396 84.8777 597.38 91.4805 596.417 93.4517C594.78 96.7938 595.024 100.395 594.128 103.878C592.446 110.399 589.223 111.904 585.608 116.787C578.089 126.94 570.688 138.359 562.776 148.097C557.042 155.151 549.737 161.925 543.914 168.942C542.61 170.513 535.683 183.274 532.468 177.739C531.068 175.323 533.928 156.426 533.231 152.313C535.142 146.955 535.831 141.227 537.461 135.788C544.573 112.052 562.05 94.8226 564.65 69.664C565.183 68.6784 570.014 67.5372 571.414 67.1296C575.14 66.0329 575.829 66.0847 579.104 64.3359C594.328 56.1991 599.965 44.9871 595.076 27.854C593.039 20.7177 576.792 3.50315 569.636 1.40598C564.22 -0.17986 549.233 -0.298428 543.366 0.4278C538.358 1.05028 518.822 6.40807 515.325 9.17218C511.488 12.2105 504.716 25.0306 504.791 29.7807C504.82 31.5444 510.488 52.027 511.251 53.0645C511.821 53.85 518.792 59.356 520.252 60.5195C523.608 63.1798 531.031 69.0119 534.817 70.1457C540.891 71.9613 548.796 69.9827 555.093 70.2865C553.997 77.4747 552.1 84.5591 549.1 91.1544C544.062 102.226 536.35 112.326 532.72 124.316C531.987 126.732 529.645 139.841 528.556 140.545C527.371 141.309 527.497 140.049 527.253 139.471C520.311 123.183 520.104 118.425 507.821 104.36C506.531 102.885 506.043 100.536 503.435 99.6098C501.894 102.804 500.812 104.249 499.308 108.258C508.317 119.559 516.903 133.231 519.881 147.593C527.208 182.911 520.948 220.386 525.793 255.882C528.379 274.823 539.765 311.194 549.781 327.334C551.826 330.624 560.775 341.333 561.39 343.637C561.968 345.801 560.501 349.358 560.375 351.781C560.094 357.147 560.138 363.09 560.531 369.329L572.969 371.427C572.71 365.95 572.747 360.459 573.177 354.96C575.222 356.191 587.453 362.727 587.631 363.831C586.793 367.114 585.453 370.204 584.163 373.316L589.66 374.243C590.757 371.367 591.994 368.714 593.357 366.469C616.656 375.428 642 374.865 664.818 366.002L666.552 355.739C665.351 356.213 664.144 356.672 662.922 357.095C645.868 363.045 632.421 365.639 614.352 361.926C612.182 361.482 599.595 358.34 598.736 357.621C597.913 356.924 598.38 356.606 598.676 355.902C599.558 353.827 603.388 348.209 604.885 346.149C608.611 341.014 613.671 336.375 617.345 331.121C628.517 334.144 641.23 344.652 653.15 342.548C653.72 342.444 657.921 341.273 658.121 341.103C658.58 340.703 658.514 339.369 658.98 338.724C660.721 336.301 662.647 335.16 663.233 331.766C664.122 326.556 658.358 310.171 655.98 304.903C649.453 290.46 636.777 280.678 622.924 273.593C613.012 268.524 612.923 270.221 603.07 269.762C602.136 269.718 600.603 268.636 600.395 268.769C600.277 268.851 599.958 270.711 599.299 271.459C598.395 272.497 596.491 272.43 595.469 275.105C594.987 276.365 592.928 284.079 592.987 285.072C593.009 285.502 594.943 291.171 595.283 293.246C596.95 303.361 602.047 309.793 607.411 318.308C608.678 320.316 612.493 325.778 611.7 327.564C610.826 329.528 604.233 335.923 602.292 338.479C600.536 340.792 592.905 353.464 592.053 353.812C589.06 355.049 576.777 345.771 573.933 343.548C573.214 334.011 575.614 324.57 577.852 315.359C583.082 293.794 590.727 270.007 601.432 250.584C606.292 241.765 610.589 232.865 620.464 229.182C622.42 228.456 625.191 229.064 626.591 227.359C628.132 225.484 628.954 220.178 629.969 217.659C630.406 216.577 634.14 213.42 631.103 213.227C630.095 214.065 625.095 217.681 624.139 217.362C623.176 215.428 620.738 210.004 621.272 208.225L618.679 207.788C618.138 208.915 617.034 210.011 616.397 211.404C615.338 213.717 614.241 218.066 613.189 219.734C612.019 221.579 609.463 221.52 608.959 218.993C608.478 216.599 608.515 210.745 608.626 208.099C604.966 206.528 593.742 198.792 596.661 207.766C598.669 213.954 604.588 220.719 602.714 227.47C601.232 232.813 592.994 244.515 589.957 250.487C586.453 257.387 582.8 265.249 579.852 272.4C572.147 291.097 565.539 310.357 563.287 330.58C562.087 331.543 559.864 326.208 559.457 325.6C548.011 308.43 541.284 283.138 535.861 263.011C532.527 250.65 534.009 212.975 537.172 200.363C542.217 180.236 554.441 170.75 566.791 156.115C579.259 141.338 590.238 125.139 602.44 110.133C612.96 104.649 629.08 97.0087 633.244 84.9741C633.955 82.9214 633.37 83.5216 631.688 83.1956L622.124 81.6097H622.094Z" fill="#831F69"/>
<path d="M505.065 221.675C505.109 221.149 506.746 219.445 507.139 218.385C512.517 203.868 510.502 185.794 508.495 170.528C506.939 158.716 492.389 145.532 480.928 143.821C479.78 143.65 479.41 143.865 478.476 144.391C478.15 144.576 473.55 149.082 473.083 149.645C468.616 155.062 460.866 172.929 459.207 179.902C457.207 188.313 460 202.801 460.978 211.745C462.17 222.69 461.378 229.152 467.215 239.29C468.356 241.276 477.328 253.948 478.395 254.237C480.684 254.859 483.454 251.362 485.062 249.946C490.07 245.544 494.345 239.653 498.034 233.688C499.138 231.909 499.19 228.441 501.309 230.182C502.309 231.005 507.398 246.804 507.895 249.175C514.807 281.989 509.184 316.507 504.739 349.069C504.25 352.641 503.864 356.183 503.568 359.703L511.643 361.066C513.629 317.085 526.149 271.992 510.147 231.583C509.376 229.634 505.005 222.224 505.05 221.668L505.065 221.675Z" fill="#831F69"/>
<path d="M504.183 86.2194C502.753 80.832 501.975 84.3593 503.094 77.8455C504.153 71.6948 503.079 70.9093 502.679 65.5812C501.835 54.2283 502.583 42.5197 489.996 36.9174C487.603 35.8503 481.18 35.791 480.854 35.4575C480.358 34.9536 480.313 32.6934 479.824 31.5893C474.246 18.9914 459.392 16.4719 447.065 18.3541C438.716 19.6287 434.559 24.1639 432.693 32.271C432.352 32.4415 427.966 28.2694 426.447 27.9655C425.151 27.7062 416.92 28.6325 415.246 29.0104C412.52 29.6181 396.784 35.9763 394.695 37.4509C393.584 38.2365 389.946 41.8231 389.183 42.9421C383.005 51.9829 387.85 59.7713 392.636 67.8043C391.821 68.7751 390.495 69.1604 389.709 70.1609C389.035 71.0279 384.442 77.7047 384.264 78.1568C383.679 79.6537 382.479 85.1523 382.086 87.1309C381.027 92.4146 381.042 95.3343 383.316 100.277C387.554 109.496 398.355 120.915 409.393 120.293C410.986 120.204 411.86 118.774 413.401 119.107C413.053 121.419 412.223 122.946 413.342 125.147C413.764 125.977 418.743 131.29 419.669 132.068C425.381 136.892 438.634 140.071 446.028 141.294C447.094 141.472 448.376 140.916 449.369 141.19C450.391 141.479 450.821 142.754 451.747 142.947C452.191 143.043 452.406 141.702 453.458 141.324C454.629 140.901 456.347 141.279 457.718 140.864C463.637 139.101 467.867 133.031 469.431 127.222C474.987 129.86 479.839 130.964 485.847 129.037C493.53 126.569 496.767 115.031 499.323 108.243C500.827 104.234 501.909 102.789 503.45 99.5953C504.642 97.1276 504.961 89.0872 504.198 86.212L504.183 86.2194ZM459.555 78.8534C459.496 78.9867 458.926 79.1424 458.837 79.6982C458.518 81.6397 459.103 87.0049 457.266 88.4796C462.141 93.5632 464.897 97.4092 463.185 104.82C462.141 104.835 461.704 104.464 460.992 103.819C460.503 103.375 456.266 97.9724 455.799 97.2388C454.495 95.2009 453.799 92.3923 454.347 89.9913C451.88 90.888 446.768 91.1251 444.287 90.2952C443.227 94.0967 443.412 96.1124 440.879 99.5138C438.73 102.389 433.819 106.265 430.307 105.954C431.196 97.9354 434.545 92.6591 441.264 88.4499C438.967 86.8122 434.848 80.7875 435.011 78.053C427.951 79.4981 425.603 76.3486 421.928 71.8208C421.558 71.3614 421.802 70.7166 422.476 69.2716C426.462 70.146 430.307 71.6059 434.426 71.9986C435.752 72.1246 436.034 72.1617 436.863 71.0279C437.389 69.9163 439.293 67.4708 440.227 66.9225C440.568 63.0023 440.071 59.7862 439.442 56.1847C439.249 55.1027 440.486 54.3172 441.368 54.9693C444.287 57.1258 442.798 62.0241 445.213 65.0921C447.376 64.729 451.087 65.2625 452.999 66.4037C454.769 63.232 456.636 61.5202 459.585 60.5494C460.889 60.1196 462.185 61.3646 461.778 62.6763C460.852 65.6404 458.244 67.4041 456.999 70.4202C458.133 72.4136 457.844 75.9781 459.8 77.5639C463.319 73.6808 469.994 79.587 473.964 80.6319C470.134 83.3886 463.348 81.0987 459.585 78.8682L459.555 78.8534Z" fill="#831F69"/>
<path d="M613.175 219.734C614.234 218.067 615.323 213.717 616.382 211.405C617.02 210.011 618.131 208.915 618.664 207.788C620.857 203.186 621.131 197.591 627.332 195.902C628.562 198.355 622.013 205.691 621.257 208.225C620.731 210.004 623.161 215.428 624.124 217.363C625.08 217.681 630.08 214.065 631.088 213.227C631.51 212.872 632.273 211.182 633.303 210.315C640.282 204.446 646.734 213.353 652.58 216.503C654.558 217.57 657.002 218.126 659.136 219.267C665.085 222.461 675.812 232.332 677.472 219.4C677.849 216.466 675.642 210.174 676.057 208.611C676.716 206.121 678.605 207.455 680.087 206.617C682.843 205.061 686.71 196.806 687.154 193.671C687.54 190.952 685.317 181.296 683.62 179.006C681.065 175.56 671.241 171.87 670.878 171.21C670.789 171.047 672.012 169.165 672.189 167.779C672.775 163.162 670.915 159.279 667.774 156.018C660.61 148.578 639.652 136.744 629.31 138.07C626.976 138.367 625.902 140.056 624.383 140.041C619.175 139.982 609.67 132.801 603.736 135.847C601.506 136.988 595.809 143.799 593.906 146.074C592.402 147.874 592.261 148.482 591.053 150.127C587.794 154.573 583.815 156.878 585.979 163.377C586.697 165.541 591.727 169.32 590.149 170.921C589.238 171.847 580.696 171.862 578.237 173.04C573.266 175.427 573.133 180.555 576.94 184.082C580.548 187.417 592.898 190.596 597.81 190.929C600.603 191.115 608.685 188.81 609.722 189.884C610.945 191.159 608.73 205.061 608.604 208.099C608.493 210.745 608.455 216.599 608.937 218.993C609.441 221.52 612.004 221.579 613.167 219.734H613.175ZM660.595 172.825C661.388 173.804 654.017 178.109 653.232 178.91C650.831 174.604 656.743 170.973 660.595 172.825ZM631.858 153.299C632.281 152.973 637.17 155.996 637.296 156.285C637.407 156.552 637.126 158.116 637.044 158.168C636.852 158.316 632.473 158.123 632.162 157.967C630.666 157.212 631.695 154.588 631.858 153.299ZM620.635 168.431C623.08 164.333 630.769 163.081 635.081 163.963C640.437 165.059 647.712 176.227 647.134 181.592C647.046 182.437 646.223 185.357 645.697 185.601C642.852 186.92 641.126 181.266 639.533 180.103C636.955 178.22 632.503 176.271 629.525 174.204C625.406 171.351 626.502 171.729 621.45 169.55C620.894 169.313 619.953 169.565 620.635 168.431Z" fill="#831F69"/>
<path d="M627.332 195.909C621.131 197.599 620.857 203.194 618.664 207.796L621.257 208.233C622.013 205.706 628.562 198.362 627.332 195.909Z" fill="#831F69"/>
<path d="M660.595 172.825C656.743 170.973 650.831 174.596 653.232 178.909C654.017 178.116 661.388 173.804 660.595 172.825Z" fill="#831F69"/>
<path d="M632.162 157.968C632.473 158.123 636.844 158.316 637.044 158.168C637.118 158.108 637.407 156.545 637.296 156.285C637.178 156.004 632.288 152.973 631.858 153.299C631.695 154.588 630.666 157.212 632.162 157.968Z" fill="#831F69"/>
<path d="M112.556 275.809C124.646 280.596 134.366 284.316 137.33 298.159C140.034 310.809 140.841 324.896 142.634 337.791C143.427 343.519 144.53 349.21 145.456 354.931L157.94 357.036C156.769 346.187 155.761 335.508 154.028 325.689C150.465 305.533 142.13 264.99 132.247 248.101C112.4 214.176 90.0199 179.614 56.6823 157.382C55.1414 156.352 48.948 153.447 48.6295 153.121C46.5329 151.039 51.6224 142.472 52.5114 140.042C55.1859 132.735 55.7563 122.434 54.8895 114.683C54.3191 109.54 52.0077 109.251 47.6886 107.243C45.9699 106.442 43.4436 106.228 40.4284 106.413C17.3144 107.85 1.18647 130.008 6.29081 152.602C4.97954 158.753 6.79458 165.156 11.1359 169.706C14.7511 173.493 18.4775 177.642 19.611 177.45C21.1149 177.205 23.3078 176.19 24.4931 175.234C27.1601 173.085 30.042 170.417 32.9757 167.972C35.2574 166.067 40.7322 159.242 43.4881 159.842C46.3403 160.465 53.8524 165.282 56.5786 167.157C74.4549 179.421 88.6345 196.539 100.169 214.665C92.0646 211.182 84.5747 206.314 76.1515 203.49C56.0304 196.754 33.1164 199.363 12.6694 203.246C12.0026 208.018 7.54282 211.686 6.69827 214.917C27.4713 210.048 49.8148 206.158 70.7582 212.464C92.3016 218.948 107.681 228.871 119.179 248.257C121.039 251.392 127.795 263.515 127.536 266.339C127.38 267.991 126.38 270.696 124.676 271.185C121.883 271.993 105.288 265.234 100.821 264.167C59.1049 254.193 26.7082 274.579 -7.37017 292.979L-9 302.65C32.5312 282.086 61.9126 255.756 112.556 275.809Z" fill="#831F69"/>
<path d="M292.275 81.6097C288.763 83.4623 276.769 82.3582 275.443 83.403C273.576 84.8777 267.561 91.4805 266.598 93.4517C264.96 96.7938 265.205 100.395 264.308 103.878C262.627 110.399 259.404 111.904 255.789 116.787C248.269 126.94 240.868 138.359 232.956 148.097C227.222 155.151 219.918 161.925 214.095 168.942C212.791 170.513 205.864 183.274 202.649 177.739C201.249 175.323 204.108 156.426 203.412 152.313C205.323 146.955 206.012 141.227 207.642 135.788C214.754 112.052 232.23 94.8226 234.831 69.664C235.364 68.6784 240.194 67.5372 241.595 67.1296C245.321 66.0329 246.01 66.0847 249.284 64.3359C264.509 56.1991 270.146 44.9871 265.257 27.854C263.219 20.7177 246.973 3.50315 239.817 1.40598C234.401 -0.17986 219.414 -0.298428 213.547 0.4278C208.538 1.05028 189.003 6.40807 185.506 9.17218C181.668 12.2105 174.897 25.0306 174.971 29.7807C175.001 31.5444 180.668 52.027 181.431 53.0645C182.002 53.85 188.973 59.356 190.433 60.5195C193.789 63.1798 201.212 69.0119 204.997 70.1457C211.072 71.9613 218.977 69.9827 225.274 70.2865C224.178 77.4747 222.281 84.5591 219.281 91.1544C214.243 102.226 206.531 112.326 202.901 124.316C202.167 126.732 199.826 139.841 198.737 140.545C197.552 141.309 197.678 140.049 197.433 139.471C190.492 123.183 190.284 118.425 178.001 104.36C176.712 102.885 176.223 100.536 173.616 99.6098C172.075 102.804 170.993 104.249 169.489 108.258C178.498 119.559 187.084 133.231 190.062 147.593C197.389 182.911 191.129 220.386 195.974 255.882C198.559 274.823 209.946 311.194 219.962 327.334C222.007 330.624 230.956 341.333 231.571 343.637C232.149 345.801 230.682 349.358 230.556 351.781C230.275 357.147 230.319 363.09 230.712 369.329L243.15 371.427C242.891 365.95 242.928 360.459 243.358 354.96C245.402 356.191 257.634 362.727 257.811 363.831C256.974 367.114 255.633 370.204 254.344 373.316L259.841 374.243C260.938 371.367 262.175 368.714 263.538 366.469C286.837 375.428 312.181 374.865 334.999 366.002L336.732 355.739C335.532 356.213 334.325 356.672 333.102 357.095C316.048 363.045 302.602 365.639 284.533 361.926C282.363 361.482 269.776 358.34 268.916 357.621C268.094 356.924 268.561 356.606 268.857 355.902C269.739 353.827 273.569 348.209 275.065 346.149C278.792 341.014 283.852 336.375 287.526 331.121C298.698 334.144 311.411 344.652 323.331 342.548C323.901 342.444 328.102 341.273 328.302 341.103C328.761 340.703 328.694 339.369 329.161 338.724C330.902 336.301 332.828 335.16 333.413 331.766C334.302 326.556 328.539 310.171 326.161 304.903C319.634 290.46 306.958 280.678 293.105 273.593C283.192 268.524 283.103 270.221 273.25 269.762C272.317 269.718 270.783 268.636 270.576 268.769C270.457 268.851 270.139 270.711 269.479 271.459C268.576 272.497 266.672 272.43 265.649 275.105C265.168 276.365 263.108 284.079 263.168 285.072C263.19 285.502 265.123 291.171 265.464 293.246C267.131 303.361 272.228 309.793 277.592 318.308C278.858 320.316 282.674 325.778 281.881 327.564C281.007 329.528 274.413 335.923 272.472 338.479C270.717 340.792 263.086 353.464 262.234 353.812C259.241 355.049 246.958 345.771 244.113 343.548C243.395 334.011 245.795 324.57 248.032 315.359C253.263 293.794 260.908 270.007 271.613 250.584C276.473 241.765 280.77 232.865 290.645 229.182C292.601 228.456 295.372 229.064 296.772 227.359C298.313 225.484 299.135 220.178 300.15 217.659C300.587 216.577 304.321 213.42 301.283 213.227C300.276 214.065 295.275 217.681 294.32 217.362C293.357 215.428 290.919 210.004 291.453 208.225L288.86 207.788C288.319 208.915 287.215 210.011 286.578 211.404C285.519 213.717 284.422 218.066 283.37 219.734C282.2 221.579 279.644 221.52 279.14 218.993C278.658 216.599 278.695 210.745 278.807 208.099C275.147 206.528 263.923 198.792 266.842 207.766C268.85 213.954 274.769 220.719 272.895 227.47C271.413 232.813 263.175 244.515 260.138 250.487C256.633 257.387 252.981 265.249 250.033 272.4C242.328 291.097 235.72 310.357 233.468 330.58C232.267 331.543 230.045 326.208 229.637 325.6C218.192 308.43 211.465 283.138 206.042 263.011C202.708 250.65 204.19 212.975 207.353 200.363C212.398 180.236 224.622 170.75 236.972 156.115C249.44 141.338 260.419 125.139 272.621 110.133C283.14 104.649 299.261 97.0087 303.425 84.9741C304.136 82.9214 303.55 83.5216 301.869 83.1956L292.305 81.6097H292.275Z" fill="#831F69"/>
<path d="M175.245 221.675C175.29 221.149 176.927 219.445 177.32 218.385C182.698 203.868 180.683 185.794 178.675 170.528C177.12 158.716 162.57 145.532 151.109 143.821C149.961 143.65 149.59 143.865 148.657 144.391C148.331 144.576 143.73 149.082 143.264 149.645C138.796 155.062 131.047 172.929 129.388 179.902C127.388 188.313 130.18 202.801 131.158 211.745C132.351 222.69 131.558 229.152 137.396 239.29C138.537 241.276 147.509 253.948 148.575 254.237C150.865 254.859 153.635 251.362 155.243 249.946C160.251 245.544 164.526 239.653 168.215 233.688C169.319 231.909 169.371 228.441 171.489 230.182C172.489 231.005 177.579 246.804 178.075 249.175C184.987 281.989 179.364 316.507 174.919 349.069C174.43 352.641 174.045 356.183 173.749 359.703L181.824 361.066C183.809 317.085 196.33 271.992 180.328 231.583C179.557 229.634 175.186 222.224 175.231 221.668L175.245 221.675Z" fill="#831F69"/>
<path d="M174.364 86.2194C172.934 80.832 172.156 84.3593 173.275 77.8455C174.334 71.6948 173.26 70.9093 172.86 65.5812C172.015 54.2283 172.764 42.5197 160.177 36.9174C157.784 35.8503 151.361 35.791 151.035 35.4575C150.539 34.9536 150.494 32.6934 150.005 31.5893C144.427 18.9914 129.573 16.4719 117.246 18.3541C108.896 19.6287 104.74 24.1639 102.873 32.271C102.533 32.4415 98.1469 28.2694 96.6281 27.9655C95.3317 27.7062 87.101 28.6325 85.4267 29.0104C82.7005 29.6181 66.9651 35.9763 64.876 37.4509C63.7647 38.2365 60.1272 41.8231 59.3642 42.9421C53.1856 51.9829 58.0307 59.7713 62.8165 67.8043C62.0016 68.7751 60.6755 69.1604 59.8902 70.1609C59.216 71.0279 54.6229 77.7047 54.4451 78.1568C53.8598 79.6537 52.6596 85.1523 52.267 87.1309C51.2076 92.4146 51.2224 95.3343 53.4968 100.277C57.7344 109.496 68.5357 120.915 79.5741 120.293C81.1669 120.204 82.0411 118.774 83.5821 119.107C83.2339 121.419 82.4041 122.946 83.5228 125.147C83.9451 125.977 88.9235 131.29 89.8495 132.068C95.5613 136.892 108.815 140.071 116.208 141.294C117.275 141.472 118.557 140.916 119.55 141.19C120.572 141.479 121.002 142.754 121.928 142.947C122.372 143.043 122.587 141.702 123.639 141.324C124.809 140.901 126.528 141.279 127.899 140.864C133.818 139.101 138.048 133.031 139.611 127.222C145.168 129.86 150.02 130.964 156.028 129.037C163.711 126.569 166.948 115.031 169.504 108.243C171.008 104.234 172.089 102.789 173.63 99.5953C174.823 97.1276 175.142 89.0872 174.379 86.212L174.364 86.2194ZM129.736 78.8534C129.677 78.9867 129.106 79.1424 129.017 79.6982C128.699 81.6397 129.284 87.0049 127.447 88.4796C132.322 93.5632 135.077 97.4092 133.366 104.82C132.322 104.835 131.884 104.464 131.173 103.819C130.684 103.375 126.447 97.9724 125.98 97.2388C124.676 95.2009 123.98 92.3923 124.528 89.9913C122.061 90.888 116.949 91.1251 114.467 90.2952C113.408 94.0967 113.593 96.1124 111.06 99.5138C108.911 102.389 103.999 106.265 100.488 105.954C101.377 97.9354 104.725 92.6591 111.445 88.4499C109.148 86.8122 105.029 80.7875 105.192 78.053C98.132 79.4981 95.7836 76.3486 92.1091 71.8208C91.7386 71.3614 91.9831 70.7166 92.6573 69.2716C96.643 70.146 100.488 71.6059 104.607 71.9986C105.933 72.1246 106.215 72.1617 107.044 71.0279C107.57 69.9163 109.474 67.4708 110.408 66.9225C110.748 63.0023 110.252 59.7862 109.622 56.1847C109.43 55.1027 110.667 54.3172 111.549 54.9693C114.467 57.1258 112.978 62.0241 115.393 65.0921C117.557 64.729 121.268 65.2625 123.18 66.4037C124.95 63.232 126.817 61.5202 129.766 60.5494C131.07 60.1196 132.366 61.3646 131.959 62.6763C131.032 65.6404 128.425 67.4041 127.18 70.4202C128.314 72.4136 128.025 75.9781 129.98 77.5639C133.499 73.6808 140.174 79.587 144.145 80.6319C140.315 83.3886 133.529 81.0987 129.766 78.8682L129.736 78.8534Z" fill="#831F69"/>
<path d="M283.355 219.734C284.415 218.067 285.504 213.717 286.563 211.405C287.2 210.011 288.311 208.915 288.845 207.788C291.038 203.186 291.312 197.591 297.513 195.902C298.742 198.355 292.193 205.691 291.438 208.225C290.912 210.004 293.342 215.428 294.305 217.363C295.26 217.681 300.261 214.065 301.269 213.227C301.691 212.872 302.454 211.182 303.484 210.315C310.462 204.446 316.915 213.353 322.76 216.503C324.738 217.57 327.183 218.126 329.317 219.267C335.266 222.461 345.993 232.332 347.652 219.4C348.03 216.466 345.822 210.174 346.237 208.611C346.897 206.121 348.786 207.455 350.267 206.617C353.023 205.061 356.89 196.806 357.335 193.671C357.72 190.952 355.498 181.296 353.801 179.006C351.245 175.56 341.422 171.87 341.059 171.21C340.97 171.047 342.192 169.165 342.37 167.779C342.955 163.162 341.096 159.279 337.955 156.018C330.791 148.578 309.833 136.744 299.491 138.07C297.157 138.367 296.083 140.056 294.564 140.041C289.356 139.982 279.851 132.801 273.917 135.847C271.687 136.988 265.99 143.799 264.086 146.074C262.582 147.874 262.442 148.482 261.234 150.127C257.974 154.573 253.996 156.878 256.159 163.377C256.878 165.541 261.908 169.32 260.33 170.921C259.419 171.847 250.877 171.862 248.418 173.04C243.447 175.427 243.313 180.555 247.121 184.082C250.729 187.417 263.079 190.596 267.99 190.929C270.783 191.115 278.866 188.81 279.903 189.884C281.125 191.159 278.91 205.061 278.784 208.099C278.673 210.745 278.636 216.599 279.118 218.993C279.621 221.52 282.185 221.579 283.348 219.734H283.355ZM330.776 172.825C331.569 173.804 324.197 178.109 323.412 178.91C321.012 174.604 326.924 170.973 330.776 172.825ZM302.039 153.299C302.461 152.973 307.351 155.996 307.477 156.285C307.588 156.552 307.306 158.116 307.225 158.168C307.032 158.316 302.654 158.123 302.343 157.967C300.846 157.212 301.876 154.588 302.039 153.299ZM290.815 168.431C293.26 164.333 300.95 163.081 305.262 163.963C310.618 165.059 317.893 176.227 317.315 181.592C317.226 182.437 316.404 185.357 315.878 185.601C313.033 186.92 311.307 181.266 309.714 180.103C307.136 178.22 302.684 176.271 299.705 174.204C295.586 171.351 296.683 171.729 291.63 169.55C291.075 169.313 290.134 169.565 290.815 168.431Z" fill="#831F69"/>
<path d="M297.52 195.909C291.319 197.599 291.045 203.194 288.852 207.796L291.445 208.233C292.201 205.706 298.75 198.362 297.52 195.909Z" fill="#831F69"/>
<path d="M330.776 172.825C326.924 170.973 321.012 174.596 323.412 178.909C324.197 178.116 331.569 173.804 330.776 172.825Z" fill="#831F69"/>
<path d="M302.343 157.968C302.654 158.123 307.025 158.316 307.225 158.168C307.299 158.108 307.588 156.545 307.477 156.285C307.358 156.004 302.469 152.973 302.039 153.299C301.876 154.588 300.846 157.212 302.343 157.968Z" fill="#831F69"/>
<path d="M1725 220H-3V471H1725V220Z" fill="url(#paint0_linear_57_359)"/>
<defs>
<linearGradient id="paint0_linear_57_359" x1="882.551" y1="232.917" x2="882.551" y2="345.542" gradientUnits="userSpaceOnUse">
<stop stop-color="#B50C89" stop-opacity="0"/>
<stop offset="1" stop-color="#A51680"/>
</linearGradient>
</defs>
</svg>
